<svg width="20" height="20" viewBox="0 0 20 20" fill="none" xmlns="http://www.w3.org/2000/svg">
<path d="M15.9785 0.0751953C17.154 0.0751953 18.1314 0.439067 18.8125 1.12109C20.0487 2.3573 20.203 4.46365 19.1973 7.0791C18.8046 8.07151 18.3183 9.02484 17.7461 9.92578L17.7207 9.96582L17.7461 10.0059C18.347 10.9666 18.8413 11.9249 19.1973 12.8516C20.2034 15.4674 20.0498 17.5732 18.8125 18.8105C18.1304 19.4927 17.153 19.8574 15.9785 19.8574C14.2565 19.8573 12.157 19.0875 10.0068 17.7412L9.9668 17.7168L9.92676 17.7412C7.77557 19.0866 5.67703 19.8574 3.95508 19.8574C2.77959 19.8574 1.8022 19.4926 1.12109 18.8105C-0.116079 17.5733 -0.270439 15.468 0.735352 12.8525C1.12805 11.8601 1.61434 10.9068 2.18652 10.0059L2.21191 9.96582L2.18652 9.92578C1.58565 8.96514 1.09229 8.00673 0.735352 7.08008C-0.270694 4.46426 -0.116254 2.35844 1.12109 1.12109C1.80322 0.439015 2.78067 0.0751953 3.95508 0.0751953C5.67701 0.0752669 7.77666 0.844173 9.92676 2.19043L9.9668 2.21582L10.0068 2.19043C12.158 0.845145 14.2566 0.0752914 15.9785 0.0751953ZM3.31348 11.7314C2.97619 12.3348 2.68739 12.9328 2.46289 13.5156C2.11629 14.4161 1.93676 15.2384 1.92773 15.9209C1.91875 16.6018 2.07962 17.1547 2.42773 17.5029C2.76806 17.8422 3.28618 18.0068 3.9541 18.0068C5.13969 18.0068 6.63068 17.4967 8.19824 16.6172L8.29785 16.5615L8.20801 16.4922C6.42106 15.1124 4.81789 13.5099 3.43848 11.7227L3.36914 11.6318L3.31348 11.7314ZM16.4932 11.7217C15.1128 13.5084 13.51 15.1115 11.7236 16.4922L11.6348 16.5615L11.7334 16.6172C13.3 17.4967 14.792 18.0068 15.9775 18.0068C16.6464 18.0068 17.1645 17.8423 17.5039 17.5029C17.852 17.1547 18.0129 16.6018 18.0039 15.9209C17.9949 15.2384 17.8153 14.4161 17.4688 13.5156C17.2442 12.9328 16.9555 12.3347 16.6182 11.7314L16.5625 11.6318L16.4932 11.7217ZM9.92188 4.48828C7.82186 5.99149 5.98046 7.82656 4.4707 9.92188L4.43945 9.96582L4.4707 10.0098C5.22634 11.0564 6.06507 12.0409 6.97852 12.9531C7.89025 13.862 8.8747 14.6955 9.92188 15.4443L9.96582 15.4756L10.0098 15.4443C12.1099 13.9411 13.9511 12.1052 15.4609 10.0098L15.4922 9.96582L15.4609 9.92188C14.7053 8.87517 13.8666 7.89074 12.9531 6.97852C12.0415 6.06968 11.0568 5.2371 10.0098 4.48828L9.96582 4.45703L9.92188 4.48828ZM15.9775 1.9248C14.792 1.92489 13.2999 2.43598 11.7334 3.31445L11.6338 3.37012L11.7236 3.43945C13.5107 4.8193 15.1137 6.4226 16.4932 8.20996L16.5625 8.2998L16.6182 8.2002C16.9555 7.59687 17.2443 6.99887 17.4688 6.41602C17.8159 5.51555 17.996 4.69324 18.0049 4.01074C18.0137 3.32993 17.852 2.77681 17.5039 2.42871C17.1636 2.08947 16.6454 1.9248 15.9775 1.9248ZM3.9541 1.9248C3.2853 1.9248 2.76711 2.0894 2.42773 2.42871C2.07953 2.77691 1.91873 3.3307 1.92773 4.01172C1.9357 4.60878 2.07417 5.31239 2.34082 6.08203L2.46289 6.41602C2.70423 7.03005 2.98849 7.62701 3.31348 8.20117L3.36914 8.29883L3.43848 8.20996C4.81796 6.4226 6.42093 4.81931 8.20801 3.43945L8.29785 3.37012L8.19824 3.31445C6.63172 2.43496 5.13964 1.92488 3.9541 1.9248Z" fill="white" stroke="black" stroke-width="0.15"/>
<path d="M9.9656 12.5396C11.3872 12.5396 12.5396 11.3872 12.5396 9.9656C12.5396 8.54402 11.3872 7.3916 9.9656 7.3916C8.54402 7.3916 7.3916 8.54402 7.3916 9.9656C7.3916 11.3872 8.54402 12.5396 9.9656 12.5396Z" fill="white"/>
</svg>
